<svg data-v-2d9bd78e="" width="510" height="227" viewBox="0 0 510 227" fill="none" xmlns="http://www.w3.org/2000/svg" class="background-img-top"><path fill-rule="evenodd" clip-rule="evenodd" d="M-87.152 -39.8215C-88.9236 -97.5924 -78.1971 -154.94 -48.4234 -204.479C-20.7542 -250.517 24.1466 -281.369 72.3104 -305.144C118.507 -327.949 168.356 -332.792 219.715 -336.844C285.535 -342.038 369.083 -381.424 412.88 -332.018C457.935 -281.194 406.048 -201.31 399.82 -133.678C395.679 -88.7194 394.135 -46.317 382.55 -2.68C368.135 51.6174 373.1 123.327 324.232 151.04C275.433 178.714 218.732 122.276 162.632 122.037C93.5849 121.742 20.3777 187.044 -37.5683 149.496C-93.687 113.131 -85.1022 27.0177 -87.152 -39.8215Z" fill="url(#paint0_linear)" fill-opacity="0.4"></path> <path fill-rule="evenodd" clip-rule="evenodd" d="M-188.911 -99.6179C-180.859 -164.877 -158.829 -227.486 -116.742 -278.006C-77.6303 -324.955 -21.7855 -351.835 36.4978 -370.192C92.4006 -387.799 149.286 -384.577 207.733 -380.204C282.636 -374.6 383.414 -404.355 424.066 -341.195C465.884 -276.222 393.661 -195.431 374.9 -120.476C362.428 -70.6498 353.32 -23.2462 332.709 23.8C307.062 82.3393 300.177 163.824 240.418 186.486C180.743 209.115 126.807 135.805 63.777 125.782C-13.8004 113.447 -107.459 174.137 -166.079 121.848C-222.85 71.2077 -198.227 -24.1155 -188.911 -99.6179Z" fill="url(#paint1_linear)" fill-opacity="0.3"></path> <defs><linearGradient id="paint0_linear" x1="403.713" y1="80.0373" x2="-60.6291" y2="-29.7743" gradientUnits="userSpaceOnUse"><stop stop-color="#9EE6F7" stop-opacity="0"></stop> <stop offset="1" stop-color="#9EE6F7" stop-opacity="0.46"></stop></linearGradient> <linearGradient id="paint1_linear" x1="342.121" y1="120.477" x2="269" y2="-1.00001" gradientUnits="userSpaceOnUse"><stop stop-color="#9EE6F7" stop-opacity="0"></stop> <stop offset="1" stop-color="#9EE6F7" stop-opacity="0.46"></stop></linearGradient></defs></svg>